<?xml version="1.0" standalone="no"?>
<!DOCTYPE svg PUBLIC "-//W3C//DTD SVG 20010904//EN"
 "http://www.w3.org/TR/2001/REC-SVG-20010904/DTD/svg10.dtd">
<svg version="1.0" xmlns="http://www.w3.org/2000/svg"
 width="675.000000pt" height="191.000000pt" viewBox="0 0 675.000000 191.000000"
 preserveAspectRatio="xMidYMid meet">

<g transform="translate(0.000000,191.000000) scale(0.100000,-0.100000)"
fill="#00000" stroke="none">
<path d="M5007 1484 c-14 -14 -7 -35 11 -32 9 2 17 10 17 17 0 16 -18 25 -28
15z"/>
<path d="M5132 1468 c-7 -7 -12 -24 -12 -38 0 -34 17 -50 52 -50 18 0 33 8 44
25 15 23 15 27 0 50 -18 27 -63 34 -84 13z"/>
<path d="M4852 1433 c5 -26 38 -29 38 -4 0 15 -6 21 -21 21 -14 0 -19 -5 -17
-17z"/>
<path d="M760 1150 l0 -280 160 0 160 0 0 45 0 45 -105 0 -105 0 0 75 0 75 95
0 95 0 0 40 0 39 -92 3 -93 3 -3 73 -3 72 106 0 105 0 0 45 0 45 -160 0 -160
0 0 -280z"/>
<path d="M1386 1416 c-61 -23 -109 -67 -140 -130 -75 -149 -24 -320 116 -390
43 -21 66 -26 130 -26 114 0 192 42 238 127 l20 38 -60 3 c-57 3 -63 1 -89
-27 -59 -63 -173 -61 -230 4 -58 66 -62 183 -10 257 56 78 173 84 242 13 31
-32 39 -35 92 -35 48 0 56 3 51 16 -3 9 -6 20 -6 25 0 18 -75 91 -114 111 -53
28 -183 35 -240 14z"/>
<path d="M2475 1403 c3 -15 20 -64 37 -108 17 -44 43 -114 58 -155 15 -41 44
-119 65 -172 l37 -98 63 0 c38 0 66 5 72 13 6 6 22 46 36 87 31 92 83 235 129
357 19 51 33 95 30 98 -3 3 -29 5 -58 5 l-53 0 -25 -77 c-60 -184 -118 -349
-126 -357 -5 -4 -17 20 -28 55 -11 35 -41 123 -67 194 -26 72 -50 141 -54 155
-7 22 -13 25 -65 28 l-58 3 7 -28z"/>
<path d="M3140 1150 l0 -280 160 0 160 0 0 45 0 45 -105 0 -105 0 0 75 0 75
95 0 95 0 0 40 0 39 -92 3 -93 3 -3 73 -3 72 106 0 106 0 -3 43 -3 42 -157 3
-158 3 0 -281z"/>
<path d="M3597 1423 c-4 -3 -7 -129 -7 -280 l0 -273 55 0 55 0 2 187 3 188 40
-57 c22 -32 78 -116 125 -188 l85 -130 58 0 57 0 -2 278 -3 277 -52 3 -53 3 0
-185 c0 -103 -4 -186 -8 -186 -5 0 -63 83 -131 185 l-122 185 -48 0 c-26 0
-51 -3 -54 -7z"/>
<path d="M240 1380 l0 -40 75 0 75 0 0 -235 0 -235 55 0 55 0 0 235 0 235 75
0 75 0 0 40 0 40 -205 0 -205 0 0 -40z"/>
<path d="M1880 1145 l0 -275 55 0 54 0 3 118 3 117 120 0 120 0 3 -117 3 -118
54 0 55 0 0 275 0 275 -55 0 -55 0 0 -110 0 -110 -125 0 -125 0 0 110 0 110
-55 0 -55 0 0 -275z"/>
<path d="M4170 1380 l0 -40 75 0 75 0 0 -235 0 -235 55 0 55 0 0 235 0 235 75
0 75 0 0 40 0 40 -205 0 -205 0 0 -40z"/>
<path d="M5490 1146 l0 -276 55 0 55 0 0 110 0 110 25 0 c29 0 42 -17 121
-167 l28 -53 63 0 c35 0 63 2 63 4 0 2 -27 50 -60 105 -33 56 -60 105 -60 109
0 4 16 16 35 26 52 28 80 79 80 146 0 61 -22 102 -72 136 -24 16 -51 20 -180
22 l-153 4 0 -276z m273 165 c29 -29 28 -83 -3 -116 -21 -22 -32 -25 -92 -25
l-68 0 0 86 0 87 71 -5 c54 -4 76 -10 92 -27z"/>
<path d="M6084 1338 c154 -291 146 -270 146 -374 l0 -94 55 0 55 0 0 100 0 99
91 176 91 176 -62 -3 -62 -3 -53 -115 c-29 -63 -57 -116 -62 -117 -5 -2 -33
51 -63 117 l-55 120 -63 0 -62 0 44 -82z"/>
<path d="M5242 1358 c-7 -7 -12 -24 -12 -38 0 -33 17 -50 50 -50 33 0 50 17
50 50 0 33 -17 50 -50 50 -14 0 -31 -5 -38 -12z"/>
<path d="M4726 1334 c-7 -19 10 -44 30 -44 16 0 33 30 27 48 -7 18 -50 15 -57
-4z"/>
<path d="M4993 1334 c-3 -8 2 -23 11 -32 15 -15 17 -15 32 0 21 21 11 48 -16
48 -11 0 -23 -7 -27 -16z"/>
<path d="M5129 1297 c-48 -24 -29 -97 26 -97 34 0 60 41 45 69 -16 32 -42 42
-71 28z"/>
<path d="M4860 1270 c-9 -16 -8 -25 1 -36 26 -32 84 0 62 34 -16 26 -50 27
-63 2z"/>
<path d="M5280 1210 c-11 -11 -20 -27 -20 -35 0 -21 36 -55 58 -55 24 0 52 31
52 57 0 23 -30 53 -53 53 -9 0 -26 -9 -37 -20z"/>
<path d="M4987 1192 c-33 -37 -9 -82 43 -82 45 0 66 52 34 84 -21 21 -57 20
-77 -2z"/>
<path d="M4707 1188 c-25 -13 -22 -55 4 -63 28 -9 53 16 45 43 -8 25 -27 33
-49 20z"/>
<path d="M4857 1132 c-43 -47 1 -110 58 -84 31 14 34 61 7 85 -24 22 -45 21
-65 -1z"/>
<path d="M5122 1134 c-27 -18 -29 -55 -4 -77 25 -23 48 -21 73 4 22 22 19 55
-9 77 -21 16 -33 15 -60 -4z"/>
<path d="M4727 1062 c-43 -47 1 -110 58 -84 18 9 25 19 25 41 0 54 -50 80 -83
43z"/>
<path d="M5247 1062 c-22 -24 -21 -55 1 -75 35 -32 82 -10 82 38 0 49 -52 71
-83 37z"/>
<path d="M4986 1045 c-21 -22 -20 -48 2 -68 25 -23 55 -21 77 3 15 16 17 26 9
48 -11 33 -62 43 -88 17z"/>
<path d="M4840 940 c-11 -11 -20 -27 -20 -35 0 -18 35 -55 53 -55 24 0 57 31
57 54 0 26 -28 56 -53 56 -9 0 -26 -9 -37 -20z"/>
<path d="M5137 942 c-22 -24 -21 -55 1 -75 36 -32 85 -10 85 38 0 49 -54 72
-86 37z"/>
<path d="M4990 900 c-11 -11 -20 -28 -20 -38 0 -24 31 -52 57 -52 23 0 53 30
53 53 0 21 -35 57 -55 57 -8 0 -24 -9 -35 -20z"/>
<path d="M2110 485 c0 -118 1 -125 20 -125 19 0 20 7 20 125 0 118 -1 125 -20
125 -19 0 -20 -7 -20 -125z"/>
<path d="M2220 485 c0 -77 4 -125 10 -125 6 0 10 41 10 103 1 116 -3 117 74
-18 34 -59 54 -85 67 -85 18 0 19 9 19 125 0 121 -1 125 -21 125 -21 0 -22 -3
-16 -106 l5 -107 -30 54 c-17 30 -44 78 -60 107 -48 85 -58 72 -58 -73z"/>
<path d="M2439 588 c5 -13 23 -69 40 -125 26 -83 35 -103 51 -103 15 0 24 16
41 73 12 39 30 96 40 125 14 40 15 52 5 52 -16 0 -27 -24 -56 -128 -13 -45
-27 -79 -31 -75 -3 5 -16 40 -29 78 -33 107 -41 125 -56 125 -10 0 -11 -6 -5
-22z"/>
<path d="M2670 485 l0 -125 70 0 c40 0 70 4 70 10 0 6 -25 10 -55 10 l-55 0 0
50 0 50 45 0 c25 0 45 5 45 10 0 6 -20 10 -45 10 l-45 0 0 40 0 40 55 0 c42 0
55 3 55 15 0 12 -14 15 -70 15 l-70 0 0 -125z"/>
<path d="M2870 485 c0 -104 2 -125 15 -125 12 0 15 17 15 97 l0 97 28 -45 c16
-24 41 -68 57 -96 18 -35 35 -53 47 -53 16 0 18 10 18 125 0 104 -2 125 -15
125 -12 0 -15 -18 -15 -102 l0 -103 -19 30 c-10 17 -37 63 -61 103 -62 105
-70 98 -70 -53z"/>
<path d="M3100 595 c0 -11 10 -15 35 -15 l35 0 0 -110 c0 -91 3 -110 15 -110
12 0 15 19 15 109 l0 110 35 3 c68 6 35 23 -50 26 -71 2 -85 0 -85 -13z"/>
<path d="M3343 588 c-31 -35 -43 -63 -43 -103 0 -40 12 -68 43 -102 31 -35
100 -32 137 5 52 53 49 158 -7 202 -36 28 -103 27 -130 -2z m108 -17 c21 -17
24 -28 24 -86 0 -58 -3 -69 -24 -86 -32 -26 -63 -24 -92 7 -20 21 -24 36 -23
81 0 48 4 59 28 79 33 29 56 30 87 5z"/>
<path d="M3570 485 c0 -104 2 -125 15 -125 12 0 15 13 15 55 0 51 2 55 24 55
19 0 31 -12 55 -55 42 -73 72 -77 35 -4 l-26 51 26 27 c33 34 33 65 1 96 -20
21 -34 25 -85 25 l-60 0 0 -125z m125 85 c38 -32 4 -80 -56 -80 l-39 0 0 51 0
52 40 -6 c23 -3 47 -11 55 -17z"/>
<path d="M3785 553 c14 -32 30 -62 36 -67 5 -6 9 -36 9 -68 0 -45 3 -58 15
-58 11 0 15 12 15 45 0 31 11 69 35 119 38 81 40 86 25 86 -5 0 -24 -27 -41
-61 -16 -34 -33 -58 -37 -54 -4 3 -16 30 -27 58 -12 30 -28 53 -38 55 -15 3
-14 -4 8 -55z"/>
<path d="M4063 484 c-34 -101 -39 -125 -26 -122 9 2 22 19 28 38 11 32 15 35
58 38 46 3 46 3 58 -37 7 -23 18 -41 26 -41 7 0 13 1 13 3 -1 8 -44 141 -61
190 -33 89 -47 79 -96 -69z m86 14 l9 -38 -40 0 c-34 0 -39 3 -33 18 4 9 11
31 17 47 5 17 12 37 15 45 6 17 19 -11 32 -72z"/>
<path d="M4270 485 c0 -77 4 -125 10 -125 6 0 10 23 10 50 l0 50 44 0 c58 0
96 29 96 75 0 49 -37 75 -106 75 l-54 0 0 -125z m122 82 c13 -20 9 -54 -7 -67
-8 -6 -32 -14 -55 -17 l-40 -6 0 58 0 57 48 -7 c26 -4 50 -12 54 -18z"/>
<path d="M4490 486 c0 -72 4 -126 9 -126 6 0 11 21 13 48 l3 47 47 5 c58 7 88
32 88 74 -1 53 -22 70 -95 74 l-65 4 0 -126z m124 84 c12 -12 11 -59 -1 -71
-6 -6 -30 -11 -54 -12 l-44 -2 -3 39 c-5 61 2 70 51 62 23 -4 46 -11 51 -16z"/>
<path d="M400 485 c0 -13 95 -15 811 -15 644 0 810 3 807 12 -4 10 -177 14
-811 16 -713 2 -807 0 -807 -13z"/>
<path d="M4760 485 c0 -13 96 -15 800 -15 704 0 800 2 800 15 0 13 -96 15
-800 15 -704 0 -800 -2 -800 -15z"/>
</g>
</svg>
